<svg width="307" height="136" viewBox="0 0 307 136" fill="none" xmlns="http://www.w3.org/2000/svg">
<path d="M62.6265 17.518C65.3745 10.9894 74.6255 10.9894 77.3735 17.518L92.7264 53.9938C93.0111 54.6702 93.3875 55.3041 93.8449 55.8778L118.243 86.4755C122.733 92.1067 118.078 100.339 110.938 99.3939L71.05 94.1127C70.3531 94.0204 69.6469 94.0204 68.95 94.1127L29.0621 99.3939C21.9222 100.339 17.2669 92.1067 21.7571 86.4755L46.1551 55.8778C46.6125 55.3041 46.9889 54.6702 47.2736 53.9938L62.6265 17.518Z" fill="#AAC8CF"/>
<path d="M186.833 49.3867C186.729 49.4518 186.619 49.4909 186.501 49.5039C186.384 49.5169 186.26 49.5365 186.13 49.5625C186.013 49.5755 185.902 49.6016 185.798 49.6406C185.694 49.6797 185.616 49.7513 185.564 49.8555C185.434 49.7253 185.29 49.6146 185.134 49.5234C184.978 49.4323 184.822 49.3346 184.665 49.2305C184.535 49.2695 184.405 49.3216 184.275 49.3867C184.145 49.4518 184.014 49.4844 183.884 49.4844C183.793 49.4844 183.702 49.4518 183.611 49.3867C183.507 49.4648 183.383 49.5299 183.24 49.582C183.109 49.6211 182.966 49.6602 182.81 49.6992C182.667 49.7383 182.53 49.7904 182.4 49.8555C182.283 49.9206 182.198 50.0182 182.146 50.1484C182.12 50.0833 182.055 50.0638 181.951 50.0898C181.859 50.1159 181.807 50.0833 181.794 49.9922C181.378 50.1354 180.954 50.2591 180.525 50.3633C180.095 50.4674 179.665 50.5781 179.236 50.6953C178.806 50.8125 178.383 50.9427 177.966 51.0859C177.55 51.2292 177.146 51.4049 176.755 51.6133C176.742 51.6263 176.736 51.6458 176.736 51.6719C176.736 51.8021 176.755 51.9258 176.794 52.043C176.833 52.1602 176.866 52.2708 176.892 52.375C176.658 53.1693 176.501 53.9766 176.423 54.7969C176.345 55.6172 176.241 56.4245 176.111 57.2188V57.2969C176.111 57.362 176.137 57.4141 176.189 57.4531C176.241 57.4792 176.267 57.5312 176.267 57.6094L176.247 57.6484C176.182 57.6875 176.137 57.7461 176.111 57.8242C176.085 57.8893 176.072 57.9609 176.072 58.0391C176.072 58.0911 176.085 58.1693 176.111 58.2734C175.889 59.0156 175.74 59.7708 175.661 60.5391C175.596 61.3073 175.512 62.0755 175.408 62.8438L175.232 64.1328C175.206 64.2109 175.18 64.2891 175.154 64.3672C175.141 64.4323 175.134 64.5039 175.134 64.582C175.134 64.9987 175.16 65.4089 175.212 65.8125C175.277 66.2031 175.297 66.6068 175.271 67.0234C175.388 67.2057 175.447 67.3815 175.447 67.5508C175.447 67.6159 175.44 67.681 175.427 67.7461C175.427 67.8112 175.421 67.8763 175.408 67.9414C175.577 68.1107 175.772 68.2279 175.994 68.293C176.228 68.3711 176.436 68.4883 176.619 68.6445V68.7227C176.619 68.8529 176.599 68.9766 176.56 69.0938C176.521 69.224 176.488 69.3542 176.462 69.4844C176.436 69.5885 176.404 69.7383 176.365 69.9336C176.339 70.1289 176.3 70.2591 176.247 70.3242C176.182 70.4154 176.085 70.4935 175.954 70.5586C175.837 70.6367 175.72 70.6758 175.603 70.6758C175.564 70.6758 175.505 70.6562 175.427 70.6172C175.362 70.5781 175.31 70.5456 175.271 70.5195C175.206 70.5195 175.121 70.5521 175.017 70.6172C174.913 70.6823 174.809 70.7148 174.704 70.7148C174.652 70.7148 174.607 70.7083 174.568 70.6953C174.529 70.6953 174.483 70.6823 174.431 70.6562C174.379 70.526 174.301 70.4089 174.197 70.3047C174.105 70.2135 173.995 70.1224 173.865 70.0312C173.878 69.849 173.845 69.7122 173.767 69.6211C173.689 69.5299 173.611 69.4128 173.533 69.2695C173.507 69.0872 173.48 68.8789 173.454 68.6445C173.441 68.4102 173.344 68.2409 173.161 68.1367C173.227 68.0456 173.259 67.9219 173.259 67.7656C173.259 67.7005 173.246 67.6289 173.22 67.5508C173.207 67.4727 173.168 67.4141 173.103 67.375V67.3359C173.09 67.2708 173.109 67.2253 173.161 67.1992C173.227 67.1602 173.259 67.1081 173.259 67.043V66.9648C173.168 66.5482 173.122 66.112 173.122 65.6562C173.122 65.2266 173.135 64.8034 173.161 64.3867C173.188 63.957 173.188 63.5273 173.161 63.0977C173.24 63.0326 173.298 62.9284 173.337 62.7852C173.389 62.6419 173.428 62.4857 173.454 62.3164C173.48 62.1471 173.494 61.9844 173.494 61.8281C173.507 61.6589 173.52 61.5221 173.533 61.418C173.598 60.6758 173.702 59.9466 173.845 59.2305C173.988 58.5013 174.073 57.7591 174.099 57.0039C174.164 56.8997 174.203 56.763 174.216 56.5938C174.229 56.4245 174.236 56.2487 174.236 56.0664C174.236 55.8711 174.249 55.6823 174.275 55.5C174.301 55.3177 174.353 55.1615 174.431 55.0312C174.431 54.6667 174.464 54.3021 174.529 53.9375C174.594 53.5599 174.626 53.1823 174.626 52.8047C174.626 52.6224 174.607 52.4336 174.568 52.2383C174.438 52.1862 174.32 52.1602 174.216 52.1602C174.073 52.1602 173.923 52.1927 173.767 52.2578C173.624 52.3099 173.52 52.3945 173.454 52.5117C173.168 52.5247 172.888 52.5703 172.615 52.6484C172.341 52.7266 172.068 52.7656 171.794 52.7656H171.599C171.547 52.7656 171.488 52.7591 171.423 52.7461C171.332 52.7852 171.234 52.8177 171.13 52.8438C171.039 52.8698 171 52.9479 171.013 53.0781C170.609 53.1172 170.212 53.2018 169.822 53.332C169.444 53.4622 169.066 53.6055 168.689 53.7617C168.311 53.9049 167.934 54.0417 167.556 54.1719C167.165 54.3021 166.768 54.3867 166.365 54.4258C166.221 54.4909 166.13 54.6276 166.091 54.8359C165.805 54.8099 165.564 54.7383 165.369 54.6211C165.173 54.5039 164.945 54.3932 164.685 54.2891C164.607 54.0156 164.568 53.7552 164.568 53.5078C164.568 53.1823 164.633 52.8698 164.763 52.5703C164.893 52.2708 165.102 52.0495 165.388 51.9062C165.453 51.9193 165.512 51.9323 165.564 51.9453C165.616 51.9453 165.675 51.9453 165.74 51.9453C165.948 51.9453 166.156 51.9062 166.365 51.8281C166.573 51.75 166.788 51.7109 167.009 51.7109C167.074 51.7109 167.146 51.7305 167.224 51.7695C167.315 51.7174 167.432 51.6784 167.576 51.6523C167.706 51.6133 167.829 51.5807 167.947 51.5547C168.077 51.5156 168.194 51.4635 168.298 51.3984C168.402 51.3333 168.467 51.2422 168.494 51.125C168.559 51.1771 168.63 51.2096 168.708 51.2227C168.786 51.2357 168.865 51.2422 168.943 51.2422C169.112 51.2422 169.288 51.2096 169.47 51.1445C169.652 51.0794 169.796 50.9753 169.9 50.832C169.991 50.9362 170.121 50.9883 170.29 50.9883C170.473 50.9883 170.648 50.9427 170.818 50.8516C171 50.7474 171.176 50.6953 171.345 50.6953C171.475 50.6953 171.573 50.7409 171.638 50.832C171.781 50.7148 171.951 50.6237 172.146 50.5586C172.341 50.4935 172.536 50.4349 172.732 50.3828C172.94 50.3307 173.129 50.2721 173.298 50.207C173.48 50.1419 173.624 50.0508 173.728 49.9336C173.793 49.9466 173.897 49.9531 174.04 49.9531C174.262 49.9531 174.47 49.9271 174.665 49.875C174.874 49.8099 175.082 49.7513 175.29 49.6992L175.701 49.6602C175.805 49.6471 175.896 49.6146 175.974 49.5625C176.065 49.5104 176.156 49.4648 176.247 49.4258C176.339 49.3867 176.43 49.3542 176.521 49.3281C176.625 49.3021 176.749 49.2956 176.892 49.3086C177.204 49.1393 177.536 49.0091 177.888 48.918C178.24 48.8268 178.598 48.7487 178.962 48.6836C179.327 48.6055 179.685 48.5208 180.036 48.4297C180.388 48.3255 180.72 48.1758 181.033 47.9805H181.091C181.352 47.9805 181.605 47.9349 181.853 47.8438C182.113 47.7526 182.354 47.6289 182.576 47.4727C182.615 47.4857 182.654 47.4922 182.693 47.4922H182.829C183.194 47.4922 183.546 47.4401 183.884 47.3359C184.236 47.2318 184.6 47.1797 184.978 47.1797C185.199 47.1797 185.375 47.2122 185.505 47.2773C185.635 47.3294 185.753 47.401 185.857 47.4922C185.961 47.5703 186.072 47.6484 186.189 47.7266C186.306 47.8047 186.456 47.8633 186.638 47.9023C186.755 48.1237 186.814 48.3646 186.814 48.625C186.814 48.8724 186.82 49.1263 186.833 49.3867ZM193.24 55.5781V55.6562C193.148 55.6823 193.103 55.7474 193.103 55.8516C192.96 55.9167 192.81 55.9688 192.654 56.0078C192.497 56.0339 192.348 56.0794 192.204 56.1445C192.061 56.1315 191.911 56.125 191.755 56.125C191.612 56.112 191.469 56.1055 191.326 56.1055C190.935 56.1055 190.544 56.1185 190.154 56.1445C189.763 56.1706 189.372 56.1706 188.982 56.1445C188.8 56.2487 188.598 56.3333 188.376 56.3984C188.168 56.4505 187.966 56.4766 187.771 56.4766C187.615 56.4766 187.478 56.457 187.361 56.418C187.048 56.5742 186.703 56.7044 186.326 56.8086C185.961 56.9128 185.59 57.0169 185.212 57.1211C184.835 57.2122 184.47 57.3229 184.119 57.4531C183.78 57.5703 183.48 57.7396 183.22 57.9609C183.194 58.1432 183.175 58.3255 183.161 58.5078C183.148 58.6771 183.142 58.8464 183.142 59.0156C183.142 59.1979 183.148 59.3672 183.161 59.5234C183.188 59.6797 183.233 59.8359 183.298 59.9922C183.363 60.0182 183.435 60.0378 183.513 60.0508C183.604 60.0638 183.682 60.0703 183.747 60.0703C183.813 60.0703 183.878 60.0638 183.943 60.0508C184.008 60.0247 184.053 59.9792 184.079 59.9141C184.275 59.888 184.47 59.8815 184.665 59.8945C184.861 59.8945 185.056 59.8945 185.251 59.8945C185.447 59.8945 185.635 59.888 185.818 59.875C186.013 59.862 186.202 59.8294 186.384 59.7773C186.592 59.7253 186.794 59.6927 186.99 59.6797C187.198 59.6667 187.4 59.6536 187.595 59.6406C187.79 59.6276 187.992 59.6081 188.201 59.582C188.409 59.543 188.624 59.4714 188.845 59.3672C189.014 59.4323 189.184 59.4648 189.353 59.4648C189.535 59.4648 189.711 59.4779 189.88 59.5039C189.971 59.569 190.043 59.6406 190.095 59.7188C190.16 59.7969 190.193 59.888 190.193 59.9922C190.193 60.1745 190.128 60.3568 189.997 60.5391C189.867 60.7214 189.763 60.8906 189.685 61.0469H189.47C189.158 61.0469 188.852 61.0924 188.552 61.1836C188.266 61.2617 187.973 61.3594 187.673 61.4766C187.387 61.5807 187.094 61.6784 186.794 61.7695C186.508 61.8477 186.208 61.8867 185.896 61.8867C185.844 61.8867 185.811 61.9193 185.798 61.9844C185.798 62.0365 185.785 62.0755 185.759 62.1016C185.694 62.0885 185.596 62.082 185.466 62.082C185.167 62.082 184.88 62.1146 184.607 62.1797C184.333 62.2448 184.053 62.2773 183.767 62.2773C183.689 62.2773 183.611 62.2773 183.533 62.2773C183.454 62.2643 183.376 62.2513 183.298 62.2383C183.233 62.3424 183.148 62.4141 183.044 62.4531C182.94 62.4792 182.842 62.5312 182.751 62.6094C182.712 62.7266 182.686 62.8698 182.673 63.0391C182.673 63.2083 182.667 63.3841 182.654 63.5664C182.654 63.7357 182.641 63.8984 182.615 64.0547C182.589 64.2109 182.536 64.3346 182.458 64.4258C182.471 64.4909 182.523 64.5169 182.615 64.5039C182.706 64.4779 182.751 64.5169 182.751 64.6211C182.751 64.7383 182.738 64.862 182.712 64.9922C182.686 65.1224 182.673 65.2526 182.673 65.3828C182.673 65.6302 182.699 65.9036 182.751 66.2031C182.816 66.4896 182.908 66.7565 183.025 67.0039C183.155 67.2513 183.324 67.4596 183.533 67.6289C183.741 67.7852 184.001 67.8633 184.314 67.8633C184.522 67.8633 184.717 67.8242 184.9 67.7461C185.082 67.668 185.232 67.5378 185.349 67.3555L185.447 67.3359C185.499 67.3359 185.544 67.3424 185.583 67.3555C185.635 67.3685 185.688 67.375 185.74 67.375C185.818 67.375 185.915 67.3294 186.033 67.2383C186.163 67.1341 186.3 67.0169 186.443 66.8867C186.599 66.7565 186.755 66.6328 186.911 66.5156C187.068 66.3854 187.217 66.2943 187.361 66.2422C187.452 66.0599 187.536 65.8776 187.615 65.6953C187.706 65.513 187.836 65.3698 188.005 65.2656V64.6992C188.135 64.556 188.272 64.4258 188.415 64.3086C188.572 64.1914 188.689 64.0417 188.767 63.8594C188.832 63.8854 188.891 63.9049 188.943 63.918C189.008 63.931 189.073 63.9375 189.138 63.9375C189.203 63.9375 189.268 63.931 189.333 63.918C189.411 63.9049 189.483 63.8854 189.548 63.8594C189.652 64.0026 189.73 64.1654 189.783 64.3477C189.848 64.5169 189.926 64.6797 190.017 64.8359C189.9 65.0703 189.763 65.3503 189.607 65.6758C189.451 66.0013 189.281 66.3268 189.099 66.6523C188.917 66.9779 188.721 67.2904 188.513 67.5898C188.318 67.8763 188.122 68.0977 187.927 68.2539C187.888 68.293 187.803 68.3385 187.673 68.3906C187.53 68.4948 187.4 68.5924 187.283 68.6836C187.165 68.7878 187.055 68.9049 186.951 69.0352C186.573 69.1523 186.208 69.3086 185.857 69.5039C185.518 69.6992 185.18 69.888 184.841 70.0703C184.685 70.0312 184.516 70.0117 184.333 70.0117C184.177 70.0117 184.021 70.0182 183.865 70.0312C183.708 70.0573 183.539 70.0703 183.357 70.0703C183.305 70.0052 183.227 69.9596 183.122 69.9336C183.031 69.9206 182.999 69.8555 183.025 69.7383C182.582 69.7122 182.224 69.5885 181.951 69.3672C181.677 69.1589 181.443 68.8984 181.247 68.5859C181.065 68.2734 180.915 67.9349 180.798 67.5703C180.681 67.2057 180.557 66.8542 180.427 66.5156V66.457C180.427 66.3919 180.453 66.3529 180.505 66.3398C180.557 66.3268 180.583 66.2878 180.583 66.2227C180.583 66.1966 180.577 66.1771 180.564 66.1641C180.525 66.0208 180.492 65.8971 180.466 65.793C180.44 65.6888 180.427 65.5651 180.427 65.4219C180.427 65.2135 180.44 65.0117 180.466 64.8164C180.492 64.6081 180.505 64.3997 180.505 64.1914C180.505 63.9831 180.479 63.8008 180.427 63.6445C180.479 63.5794 180.525 63.4948 180.564 63.3906C180.59 63.2734 180.609 63.1562 180.622 63.0391C180.635 62.9219 180.642 62.8047 180.642 62.6875C180.655 62.5703 180.675 62.4661 180.701 62.375C180.648 62.2318 180.603 62.1081 180.564 62.0039C180.525 61.8867 180.505 61.75 180.505 61.5938V61.457C180.635 61.2357 180.746 61.0078 180.837 60.7734C180.928 60.5391 181.026 60.2982 181.13 60.0508V59.9922C181.13 59.6146 181.117 59.237 181.091 58.8594C181.065 58.4818 181.052 58.1042 181.052 57.7266V57.3555C181.052 57.2253 181.059 57.1016 181.072 56.9844C181.176 56.9323 181.254 56.8607 181.306 56.7695C181.358 56.6784 181.436 56.6068 181.54 56.5547H182.185L182.302 56.3594C182.341 56.2943 182.367 56.2227 182.38 56.1445C182.523 56.1055 182.66 56.0534 182.79 55.9883C182.934 55.9102 183.064 55.832 183.181 55.7539C183.363 55.6497 183.526 55.5586 183.669 55.4805C183.826 55.3893 183.975 55.3177 184.119 55.2656C184.275 55.2005 184.438 55.1484 184.607 55.1094C184.776 55.0703 184.971 55.0378 185.193 55.0117C185.297 55.0117 185.362 54.9922 185.388 54.9531C185.427 54.9141 185.479 54.8685 185.544 54.8164C185.701 54.8424 185.857 54.8685 186.013 54.8945C186.169 54.9076 186.326 54.9141 186.482 54.9141C186.794 54.9141 187.087 54.8555 187.361 54.7383C187.751 54.7383 188.135 54.7318 188.513 54.7188C188.904 54.7057 189.294 54.6992 189.685 54.6992C190.023 54.6992 190.362 54.7122 190.701 54.7383C191.039 54.7643 191.371 54.8099 191.697 54.875C191.814 54.8359 191.944 54.8164 192.087 54.8164C192.244 54.8164 192.4 54.8359 192.556 54.875C192.725 54.901 192.888 54.901 193.044 54.875C193.057 55.0182 193.09 55.1419 193.142 55.2461C193.207 55.3372 193.24 55.4479 193.24 55.5781ZM206.951 64.4844C206.951 64.6146 206.911 64.7253 206.833 64.8164C206.768 64.8945 206.684 64.9661 206.579 65.0312C206.488 65.0964 206.391 65.1549 206.286 65.207C206.195 65.2591 206.111 65.3242 206.033 65.4023C205.98 65.4544 205.941 65.5195 205.915 65.5977C205.902 65.6628 205.87 65.7083 205.818 65.7344C205.74 65.7995 205.655 65.8385 205.564 65.8516C205.473 65.8646 205.375 65.8841 205.271 65.9102C205.18 65.9232 205.089 65.9492 204.997 65.9883C204.906 66.0143 204.828 66.0729 204.763 66.1641C204.151 66.2292 203.546 66.3138 202.947 66.418C202.361 66.5221 201.755 66.5742 201.13 66.5742C201.013 66.5742 200.883 66.5872 200.74 66.6133C200.609 66.6263 200.486 66.6393 200.369 66.6523C200.095 66.6784 199.822 66.6979 199.548 66.7109C199.288 66.724 199.021 66.7305 198.747 66.7305C198.37 66.7305 197.992 66.7174 197.615 66.6914C197.237 66.6523 196.866 66.5938 196.501 66.5156C196.41 66.4505 196.306 66.3984 196.189 66.3594C196.072 66.3203 195.948 66.2812 195.818 66.2422C195.701 66.2031 195.59 66.1576 195.486 66.1055C195.382 66.0534 195.303 65.9753 195.251 65.8711C195.056 65.8581 194.88 65.819 194.724 65.7539C194.581 65.6888 194.444 65.6172 194.314 65.5391C194.197 65.4479 194.073 65.3568 193.943 65.2656C193.813 65.1745 193.663 65.0964 193.494 65.0312C193.363 64.849 193.227 64.6732 193.083 64.5039C192.953 64.3216 192.79 64.1719 192.595 64.0547C192.556 63.8073 192.491 63.5599 192.4 63.3125C192.322 63.0651 192.237 62.8242 192.146 62.5898C192.068 62.3424 192.003 62.0951 191.951 61.8477C191.885 61.6003 191.853 61.3464 191.853 61.0859C191.853 60.9036 191.879 60.6823 191.931 60.4219C191.983 60.1615 192.048 59.901 192.126 59.6406C192.217 59.3672 192.322 59.1133 192.439 58.8789C192.556 58.6445 192.673 58.4557 192.79 58.3125C192.829 58.2734 192.875 58.2409 192.927 58.2148C192.979 58.1888 193.025 58.1497 193.064 58.0977C193.181 57.9674 193.305 57.8633 193.435 57.7852C193.565 57.694 193.702 57.5898 193.845 57.4727C193.897 57.4206 193.936 57.362 193.962 57.2969C194.001 57.2318 194.053 57.1732 194.119 57.1211C194.158 57.0951 194.21 57.0885 194.275 57.1016C194.353 57.1146 194.418 57.1016 194.47 57.0625C194.522 57.0234 194.548 56.9779 194.548 56.9258C194.548 56.8737 194.568 56.8281 194.607 56.7891C194.62 56.776 194.659 56.776 194.724 56.7891C194.789 56.7891 194.828 56.7891 194.841 56.7891C194.932 56.7891 195.036 56.7305 195.154 56.6133C195.271 56.4831 195.369 56.3984 195.447 56.3594C195.538 56.3073 195.629 56.2747 195.72 56.2617C195.811 56.2357 195.909 56.1966 196.013 56.1445C196.156 56.0664 196.293 56.0078 196.423 55.9688C196.566 55.9167 196.71 55.8581 196.853 55.793C196.931 55.7669 197.003 55.7214 197.068 55.6562C197.133 55.5911 197.198 55.5456 197.263 55.5195C197.38 55.4805 197.504 55.4544 197.634 55.4414C197.777 55.4154 197.908 55.3958 198.025 55.3828C198.155 55.3568 198.279 55.3307 198.396 55.3047C198.526 55.2656 198.643 55.2005 198.747 55.1094H198.904C199.138 55.1094 199.366 55.0768 199.587 55.0117C199.809 54.9466 200.036 54.9141 200.271 54.9141C200.336 54.9141 200.434 54.9271 200.564 54.9531C200.668 54.888 200.785 54.8555 200.915 54.8555C201.137 54.8555 201.358 54.9141 201.579 55.0312C201.801 55.1354 202.029 55.1875 202.263 55.1875H202.38C202.432 55.1875 202.484 55.181 202.536 55.168C202.68 55.3112 202.849 55.3893 203.044 55.4023C203.253 55.4154 203.428 55.474 203.572 55.5781C203.663 55.6562 203.734 55.7474 203.786 55.8516C203.852 55.9557 203.904 56.0664 203.943 56.1836L204.06 56.5352C204.099 56.6523 204.151 56.7565 204.216 56.8477C204.151 57.3164 203.956 57.694 203.63 57.9805C203.318 58.2539 202.921 58.3906 202.439 58.3906C202.257 58.3906 202.1 58.3711 201.97 58.332C201.853 58.2799 201.742 58.2279 201.638 58.1758C201.547 58.1237 201.449 58.0716 201.345 58.0195C201.241 57.9674 201.124 57.9284 200.994 57.9023C201.137 57.6419 201.228 57.362 201.267 57.0625C201.124 56.9974 200.98 56.9518 200.837 56.9258C200.694 56.8997 200.557 56.8542 200.427 56.7891C200.076 56.8802 199.73 56.9453 199.392 56.9844C199.066 57.0104 198.76 57.1471 198.474 57.3945C198.409 57.3815 198.337 57.3685 198.259 57.3555C198.194 57.3424 198.129 57.3359 198.064 57.3359C197.986 57.3359 197.829 57.3945 197.595 57.5117C197.361 57.6159 197.107 57.7396 196.833 57.8828C196.573 58.026 196.319 58.1693 196.072 58.3125C195.837 58.4557 195.675 58.5534 195.583 58.6055C195.479 58.6706 195.388 58.7487 195.31 58.8398C195.232 58.931 195.154 59.0286 195.076 59.1328C194.997 59.224 194.919 59.3151 194.841 59.4062C194.763 59.4844 194.665 59.543 194.548 59.582C194.522 59.7253 194.477 59.849 194.411 59.9531C194.346 60.0573 194.275 60.168 194.197 60.2852C194.184 60.5195 194.158 60.7539 194.119 60.9883C194.092 61.2227 194.079 61.457 194.079 61.6914V61.9453C194.079 62.0234 194.092 62.0951 194.119 62.1602C194.249 62.3294 194.353 62.5182 194.431 62.7266C194.522 62.9349 194.672 63.0781 194.88 63.1562C194.893 63.2083 194.887 63.2409 194.861 63.2539C194.848 63.2669 194.835 63.2995 194.822 63.3516C194.9 63.4948 194.997 63.612 195.115 63.7031C195.245 63.7812 195.375 63.8659 195.505 63.957C195.635 64.0352 195.759 64.1198 195.876 64.2109C195.994 64.3021 196.085 64.4193 196.15 64.5625C196.345 64.5625 196.527 64.5951 196.697 64.6602C196.879 64.7253 197.048 64.7969 197.204 64.875C197.374 64.9531 197.53 65.0247 197.673 65.0898C197.829 65.1549 197.986 65.1875 198.142 65.1875C198.285 65.1875 198.415 65.168 198.533 65.1289C198.871 65.2331 199.21 65.3112 199.548 65.3633C199.9 65.4023 200.251 65.4219 200.603 65.4219C201.033 65.4219 201.462 65.3958 201.892 65.3438C202.322 65.2917 202.751 65.2461 203.181 65.207C203.337 65.181 203.487 65.168 203.63 65.168C203.773 65.168 203.917 65.1549 204.06 65.1289C204.242 65.1029 204.411 65.0182 204.568 64.875C204.737 64.7318 204.9 64.6276 205.056 64.5625C205.199 64.6536 205.369 64.6992 205.564 64.6992C205.785 64.6992 206 64.6667 206.208 64.6016C206.417 64.5234 206.632 64.4844 206.853 64.4844H206.951ZM218.982 58.8789C218.93 59.0091 218.878 59.1328 218.826 59.25C218.773 59.3672 218.734 59.4974 218.708 59.6406C218.617 59.7057 218.513 59.7578 218.396 59.7969C218.292 59.8229 218.181 59.8555 218.064 59.8945C217.947 59.9206 217.836 59.9596 217.732 60.0117C217.641 60.0508 217.569 60.1159 217.517 60.207C217.478 60.4023 217.458 60.5846 217.458 60.7539C217.458 60.9753 217.497 61.1641 217.576 61.3203C217.536 61.4375 217.51 61.5612 217.497 61.6914C217.484 61.8216 217.478 61.9453 217.478 62.0625C217.478 62.4922 217.53 62.9219 217.634 63.3516C217.738 63.7682 217.797 64.1914 217.81 64.6211C217.81 64.6862 217.803 64.7578 217.79 64.8359C217.777 64.9141 217.771 64.9857 217.771 65.0508C217.771 65.3242 217.875 65.5065 218.083 65.5977C218.044 65.6628 218.025 65.7214 218.025 65.7734C218.025 65.8776 218.038 65.9688 218.064 66.0469C218.09 66.125 218.096 66.2096 218.083 66.3008C218.148 66.431 218.214 66.5482 218.279 66.6523C218.344 66.7435 218.389 66.8607 218.415 67.0039C218.324 67.1862 218.214 67.3555 218.083 67.5117C217.953 67.6549 217.862 67.8372 217.81 68.0586C217.758 68.0456 217.699 68.0391 217.634 68.0391C217.543 68.0391 217.471 68.0586 217.419 68.0977C217.367 68.1367 217.322 68.1823 217.283 68.2344C217.257 68.2995 217.224 68.3581 217.185 68.4102C217.146 68.4753 217.094 68.5208 217.029 68.5469H216.97C216.905 68.5599 216.846 68.5534 216.794 68.5273C216.755 68.5143 216.716 68.5078 216.677 68.5078C216.651 68.5078 216.599 68.5208 216.521 68.5469C216.417 68.4167 216.345 68.2604 216.306 68.0781C216.267 67.9089 216.247 67.7396 216.247 67.5703C216.247 67.388 216.273 67.2253 216.326 67.082C216.182 66.9648 216.091 66.7891 216.052 66.5547C216.026 66.3203 215.994 66.125 215.954 65.9688C215.85 65.487 215.727 65.0182 215.583 64.5625C215.453 64.1068 215.375 63.638 215.349 63.1562C215.336 62.974 215.329 62.7982 215.329 62.6289V61.6133C215.329 61.444 215.336 61.2812 215.349 61.125C215.349 61.0078 215.355 60.8971 215.369 60.793C215.395 60.6758 215.408 60.5586 215.408 60.4414C215.408 60.2852 215.355 60.1354 215.251 59.9922C214.327 60.0312 213.448 60.2005 212.615 60.5C211.794 60.7865 210.974 61.1315 210.154 61.5352C210.102 61.8346 210.069 62.1276 210.056 62.4141C210.043 62.7005 210.036 62.9935 210.036 63.293V64.1523C210.036 64.4779 210.05 64.7513 210.076 64.9727C210.141 65.3503 210.329 65.6432 210.642 65.8516C210.967 66.0469 211.293 66.1966 211.619 66.3008C211.605 66.4961 211.566 66.6654 211.501 66.8086C211.436 66.9388 211.352 67.0625 211.247 67.1797C211.156 67.2839 211.052 67.388 210.935 67.4922C210.818 67.5964 210.701 67.7135 210.583 67.8438C210.479 67.7786 210.375 67.7331 210.271 67.707C210.167 67.681 210.056 67.668 209.939 67.668C209.822 67.6549 209.704 67.6419 209.587 67.6289C209.47 67.6159 209.353 67.5898 209.236 67.5508L208.806 66.9648C208.663 66.7695 208.507 66.5742 208.337 66.3789V66.2031C208.337 65.8516 208.272 65.513 208.142 65.1875C208.012 64.862 207.914 64.5299 207.849 64.1914C207.888 64.0742 207.914 63.957 207.927 63.8398C207.94 63.7227 207.947 63.599 207.947 63.4688C207.947 63.2083 207.934 62.9544 207.908 62.707C207.895 62.4596 207.901 62.2122 207.927 61.9648H207.829C207.712 61.9648 207.589 61.9974 207.458 62.0625C207.328 62.1146 207.198 62.1797 207.068 62.2578C206.951 62.3229 206.833 62.388 206.716 62.4531C206.612 62.5052 206.521 62.5312 206.443 62.5312C206.404 62.5312 206.365 62.5247 206.326 62.5117C206.286 62.4987 206.241 62.4922 206.189 62.4922C206.124 62.4922 206.046 62.5182 205.954 62.5703C205.863 62.6224 205.766 62.681 205.661 62.7461C205.544 62.7982 205.427 62.8503 205.31 62.9023C205.193 62.9544 205.076 62.9805 204.958 62.9805C204.776 62.9805 204.594 62.9023 204.411 62.7461C204.385 62.6419 204.379 62.5443 204.392 62.4531C204.392 62.362 204.392 62.2643 204.392 62.1602C204.392 62.056 204.372 61.9453 204.333 61.8281C204.425 61.6589 204.548 61.5286 204.704 61.4375C204.848 61.3333 205.004 61.2422 205.173 61.1641C205.329 61.0729 205.492 60.9883 205.661 60.9102C205.831 60.819 205.974 60.7018 206.091 60.5586H206.208C206.391 60.5586 206.553 60.5195 206.697 60.4414C206.853 60.3633 207.029 60.3307 207.224 60.3438C207.289 60.3177 207.335 60.2201 207.361 60.0508L207.439 60.0703C207.725 60.0703 207.979 59.9727 208.201 59.7773C208.344 58.9701 208.461 58.1562 208.552 57.3359C208.643 56.5156 208.689 55.6953 208.689 54.875C208.689 54.7969 208.663 54.7188 208.611 54.6406C208.585 54.5365 208.572 54.4388 208.572 54.3477V54.0547C208.572 53.9115 208.578 53.7617 208.591 53.6055C208.604 53.4492 208.637 53.293 208.689 53.1367C208.819 53.0586 208.956 53.0195 209.099 53.0195C209.268 53.0195 209.431 53.0456 209.587 53.0977C209.757 53.1367 209.919 53.1693 210.076 53.1953C210.193 53.3125 210.277 53.4427 210.329 53.5859C210.395 53.7292 210.434 53.8789 210.447 54.0352C210.46 54.1784 210.46 54.3281 210.447 54.4844C210.447 54.6276 210.447 54.7708 210.447 54.9141C210.447 55.2005 210.479 55.4805 210.544 55.7539C210.609 56.0273 210.642 56.2943 210.642 56.5547C210.642 56.6198 210.616 56.6719 210.564 56.7109C210.525 56.737 210.505 56.8216 210.505 56.9648C210.505 57.1081 210.518 57.2578 210.544 57.4141C210.57 57.5703 210.583 57.7266 210.583 57.8828C210.583 58.0651 210.557 58.2539 210.505 58.4492C210.453 58.6445 210.408 58.8333 210.369 59.0156C211.15 58.9505 211.951 58.8529 212.771 58.7227C213.591 58.5924 214.372 58.3841 215.115 58.0977C215.128 58.0716 215.134 58.0326 215.134 57.9805C215.134 57.9023 215.128 57.8242 215.115 57.7461C215.102 57.668 215.095 57.5833 215.095 57.4922C215.095 57.3359 215.147 57.2122 215.251 57.1211C215.186 56.7565 215.141 56.3919 215.115 56.0273C215.089 55.6628 215.076 55.2982 215.076 54.9336V53.8203C215.076 53.4557 215.069 53.0911 215.056 52.7266C215.16 52.6615 215.271 52.6289 215.388 52.6289C215.531 52.6289 215.661 52.668 215.779 52.7461C215.909 52.8112 216.059 52.8438 216.228 52.8438C216.345 52.8438 216.443 52.8242 216.521 52.7852C216.664 52.9154 216.762 53.0846 216.814 53.293C216.866 53.5013 216.911 53.7161 216.951 53.9375C216.99 54.1589 217.029 54.3802 217.068 54.6016C217.12 54.8099 217.217 54.9792 217.361 55.1094L217.38 55.168C217.38 55.2201 217.354 55.2591 217.302 55.2852C217.25 55.3112 217.224 55.3633 217.224 55.4414V55.5195C217.276 55.7279 217.315 55.9427 217.341 56.1641C217.367 56.3854 217.387 56.6133 217.4 56.8477C217.426 57.069 217.458 57.2904 217.497 57.5117C217.536 57.7201 217.608 57.9154 217.712 58.0977C217.777 58.0846 217.862 58.0781 217.966 58.0781C218.227 58.0781 218.428 58.1693 218.572 58.3516C218.728 58.5208 218.865 58.6966 218.982 58.8789ZM242.458 50.9883C242.432 51.0534 242.38 51.1706 242.302 51.3398C242.224 51.5091 242.185 51.6198 242.185 51.6719C242.185 51.776 242.178 51.9128 242.165 52.082C242.165 52.2383 242.217 52.3359 242.322 52.375C242.178 52.6745 242.087 52.9805 242.048 53.293C242.022 53.5924 242.009 53.9049 242.009 54.2305C242.009 54.543 242.003 54.862 241.99 55.1875C241.977 55.5 241.925 55.806 241.833 56.1055C241.885 56.1836 241.898 56.2812 241.872 56.3984C241.859 56.5026 241.892 56.5872 241.97 56.6523C241.905 56.7565 241.866 56.8607 241.853 56.9648C241.84 57.056 241.833 57.1536 241.833 57.2578C241.833 57.4661 241.853 57.668 241.892 57.8633C241.749 58.0716 241.677 58.306 241.677 58.5664C241.69 58.8138 241.697 59.0677 241.697 59.3281C241.697 59.5495 241.664 59.7643 241.599 59.9727C241.547 60.181 241.521 60.3958 241.521 60.6172C241.521 60.6823 241.527 60.7409 241.54 60.793C241.553 60.8451 241.56 60.9036 241.56 60.9688C241.56 61.0339 241.534 61.0794 241.482 61.1055C241.443 61.1185 241.423 61.1771 241.423 61.2812C241.423 61.763 241.391 62.2318 241.326 62.6875C241.26 63.1302 241.176 63.5729 241.072 64.0156C240.98 64.4453 240.876 64.8815 240.759 65.3242C240.642 65.7669 240.538 66.2161 240.447 66.6719C240.303 66.8281 240.193 67.0039 240.115 67.1992C240.05 67.3945 239.926 67.5508 239.744 67.668C239.574 68.0977 239.359 68.4883 239.099 68.8398C238.852 69.1914 238.572 69.5234 238.259 69.8359C237.96 70.1484 237.647 70.4479 237.322 70.7344C236.996 71.0339 236.677 71.3398 236.365 71.6523C236.234 71.6523 236.104 71.6523 235.974 71.6523C235.857 71.6654 235.733 71.6719 235.603 71.6719C235.316 71.6719 235.03 71.6589 234.744 71.6328C234.457 71.6068 234.184 71.5612 233.923 71.4961C233.871 71.3138 233.767 71.1901 233.611 71.125C233.467 71.0729 233.337 70.9883 233.22 70.8711C233.09 70.7539 232.992 70.6237 232.927 70.4805C232.862 70.3372 232.725 70.2396 232.517 70.1875C232.452 69.9922 232.348 69.7643 232.204 69.5039C232.074 69.2435 231.944 68.9766 231.814 68.7031C231.684 68.4297 231.566 68.1693 231.462 67.9219C231.371 67.6615 231.326 67.4401 231.326 67.2578C231.326 67.1927 231.332 67.1341 231.345 67.082C231.371 67.0169 231.391 66.9518 231.404 66.8867C231.326 66.7956 231.273 66.6784 231.247 66.5352C231.221 66.3919 231.202 66.2487 231.189 66.1055C231.189 65.9492 231.176 65.806 231.15 65.6758C231.124 65.5326 231.065 65.4219 230.974 65.3438C230.818 65.4479 230.694 65.5781 230.603 65.7344C230.512 65.8906 230.427 66.0599 230.349 66.2422C230.284 66.4245 230.219 66.6068 230.154 66.7891C230.089 66.9714 230.01 67.1406 229.919 67.2969C229.737 67.4401 229.574 67.6029 229.431 67.7852C229.301 67.9674 229.164 68.1497 229.021 68.332C228.891 68.5273 228.747 68.7031 228.591 68.8594C228.435 69.0286 228.253 69.1654 228.044 69.2695C227.992 69.5039 227.895 69.6992 227.751 69.8555C227.621 70.0247 227.478 70.1745 227.322 70.3047C227.165 70.4479 227.016 70.5911 226.872 70.7344C226.729 70.8906 226.625 71.0794 226.56 71.3008C226.339 71.4049 226.091 71.5547 225.818 71.75C225.544 71.9583 225.264 72.1667 224.978 72.375C224.704 72.5833 224.425 72.7591 224.138 72.9023C223.865 73.0586 223.624 73.1367 223.415 73.1367C223.246 73.1367 223.083 73.1172 222.927 73.0781C222.784 73.0521 222.634 73.0195 222.478 72.9805C222.322 72.9414 222.165 72.9023 222.009 72.8633C221.853 72.8372 221.69 72.8307 221.521 72.8438C221.273 72.5833 221.085 72.2839 220.954 71.9453C220.824 71.6198 220.661 71.3138 220.466 71.0273C220.401 70.6367 220.336 70.2396 220.271 69.8359C220.206 69.4453 220.173 69.0547 220.173 68.6641C220.173 68.4427 220.199 68.2344 220.251 68.0391C220.303 67.8568 220.329 67.668 220.329 67.4727C220.329 67.4076 220.316 67.349 220.29 67.2969C220.277 67.2318 220.264 67.1667 220.251 67.1016C220.342 66.9193 220.414 66.7305 220.466 66.5352C220.518 66.3268 220.557 66.1185 220.583 65.9102C220.622 65.7018 220.661 65.5 220.701 65.3047C220.74 65.0964 220.798 64.901 220.876 64.7188C220.902 64.5625 220.857 64.4453 220.74 64.3672C220.831 64.276 220.889 64.1784 220.915 64.0742C220.941 63.9701 220.954 63.8659 220.954 63.7617C220.967 63.6576 220.974 63.5469 220.974 63.4297C220.974 63.3125 220.987 63.2018 221.013 63.0977C221.026 63.0456 221.059 62.9674 221.111 62.8633L221.286 62.5312C221.352 62.4141 221.404 62.3099 221.443 62.2188C221.495 62.1146 221.521 62.0365 221.521 61.9844C221.521 61.8932 221.495 61.7956 221.443 61.6914C221.495 61.431 221.579 61.1771 221.697 60.9297C221.827 60.6823 221.925 60.4284 221.99 60.168C222.055 59.9076 222.094 59.6797 222.107 59.4844C222.12 59.276 222.178 59.0352 222.283 58.7617C222.296 58.7357 222.302 58.7031 222.302 58.6641C222.302 58.612 222.283 58.5794 222.244 58.5664C222.204 58.5534 222.172 58.5273 222.146 58.4883C222.302 58.1888 222.419 57.8698 222.497 57.5312C222.589 57.1797 222.66 56.8216 222.712 56.457C222.777 56.0924 222.836 55.7344 222.888 55.3828C222.94 55.0182 223.018 54.6732 223.122 54.3477C223.083 54.0872 223.051 53.8203 223.025 53.5469C222.999 53.2604 222.986 52.987 222.986 52.7266C222.986 52.4271 223.012 52.1211 223.064 51.8086C223.129 51.4961 223.266 51.2227 223.474 50.9883C223.578 50.9883 223.689 50.9818 223.806 50.9688C223.936 50.9557 224.053 50.9492 224.158 50.9492C224.314 50.9492 224.483 50.9883 224.665 51.0664C224.757 51.4831 224.874 51.8932 225.017 52.2969C225.16 52.7005 225.232 53.1302 225.232 53.5859C225.232 53.8073 225.206 54.0286 225.154 54.25L225.017 54.8945C224.978 55.1029 224.945 55.3177 224.919 55.5391C224.893 55.7474 224.9 55.9557 224.939 56.1641C224.796 56.3594 224.711 56.5872 224.685 56.8477C224.672 57.0951 224.665 57.3294 224.665 57.5508C224.535 57.7331 224.438 57.9154 224.372 58.0977C224.307 58.2799 224.255 58.4688 224.216 58.6641C224.19 58.8464 224.164 59.0352 224.138 59.2305C224.112 59.4258 224.079 59.6211 224.04 59.8164C224.014 59.8815 223.969 59.9596 223.904 60.0508C223.852 60.1419 223.826 60.207 223.826 60.2461C223.826 60.3372 223.852 60.4284 223.904 60.5195C223.878 60.5586 223.852 60.5911 223.826 60.6172C223.8 60.6302 223.78 60.6628 223.767 60.7148C223.728 60.8581 223.695 61.0143 223.669 61.1836C223.656 61.3398 223.63 61.4896 223.591 61.6328C223.526 61.9583 223.435 62.2773 223.318 62.5898C223.214 62.9023 223.103 63.2148 222.986 63.5273C222.986 63.7878 222.973 63.9961 222.947 64.1523C222.934 64.3086 222.908 64.4518 222.869 64.582C222.842 64.6992 222.803 64.8294 222.751 64.9727C222.712 65.1029 222.673 65.2721 222.634 65.4805C222.595 65.6758 222.556 65.9167 222.517 66.2031C222.491 66.4896 222.458 66.7891 222.419 67.1016C222.393 67.401 222.374 67.7005 222.361 68C222.348 68.2865 222.341 68.5339 222.341 68.7422C222.341 69.1198 222.374 69.4844 222.439 69.8359C222.517 70.2005 222.647 70.5456 222.829 70.8711H223.161C223.24 70.8711 223.324 70.8711 223.415 70.8711C223.507 70.8841 223.591 70.9102 223.669 70.9492C223.76 70.9232 223.806 70.8841 223.806 70.832V70.6758C223.806 70.6367 223.839 70.5846 223.904 70.5195L224.04 70.5391C224.171 70.5391 224.288 70.5195 224.392 70.4805C224.509 70.4414 224.626 70.3893 224.744 70.3242C224.991 69.9857 225.277 69.6992 225.603 69.4648C225.941 69.2305 226.241 68.957 226.501 68.6445C226.566 68.5404 226.586 68.4167 226.56 68.2734C226.716 68.2474 226.833 68.1888 226.911 68.0977C227.003 68.0065 227.087 67.9089 227.165 67.8047C227.244 67.7005 227.322 67.6029 227.4 67.5117C227.491 67.4076 227.608 67.3359 227.751 67.2969C227.816 67.1797 227.875 67.056 227.927 66.9258C227.979 66.7826 228.031 66.6458 228.083 66.5156C228.148 66.3854 228.22 66.2682 228.298 66.1641C228.389 66.0469 228.507 65.9557 228.65 65.8906C228.871 65.3958 229.06 64.888 229.216 64.3672C229.372 63.8333 229.607 63.3451 229.919 62.9023C229.919 62.7331 229.926 62.5768 229.939 62.4336C229.952 62.2904 229.945 62.1406 229.919 61.9844C230.245 61.5417 230.453 61.0794 230.544 60.5977C230.635 60.1159 230.681 59.6081 230.681 59.0742C230.681 58.6315 230.824 58.3255 231.111 58.1562C231.41 57.987 231.762 57.9023 232.165 57.9023H232.361C232.439 57.9023 232.51 57.9089 232.576 57.9219C232.602 58.013 232.647 58.0846 232.712 58.1367C232.79 58.1758 232.869 58.2214 232.947 58.2734V58.3906C232.947 58.5729 232.921 58.7422 232.869 58.8984C232.829 59.0417 232.81 59.1979 232.81 59.3672C232.81 59.4453 232.823 59.5495 232.849 59.6797C232.979 60.0573 233.077 60.4023 233.142 60.7148C233.22 61.0273 233.259 61.3919 233.259 61.8086C233.259 62.1602 233.24 62.5182 233.201 62.8828C233.175 63.2344 233.135 63.5859 233.083 63.9375C233.161 64.0807 233.201 64.2305 233.201 64.3867C233.201 64.4909 233.188 64.6016 233.161 64.7188C233.148 64.8229 233.142 64.9271 233.142 65.0312C233.142 65.2526 233.175 65.474 233.24 65.6953C233.318 65.9036 233.396 66.112 233.474 66.3203C233.565 66.5286 233.643 66.737 233.708 66.9453C233.773 67.1536 233.8 67.362 233.786 67.5703C234.008 67.8438 234.203 68.1237 234.372 68.4102C234.555 68.7096 234.776 68.9701 235.036 69.1914C235.141 69.2174 235.225 69.2305 235.29 69.2305C235.369 69.2305 235.434 69.2174 235.486 69.1914C235.538 69.1784 235.583 69.1589 235.622 69.1328C235.675 69.1198 235.727 69.1068 235.779 69.0938C235.831 69.0938 235.909 69.1003 236.013 69.1133C236.247 68.944 236.462 68.7487 236.658 68.5273C236.853 68.319 237.035 68.1042 237.204 67.8828C237.387 67.6615 237.569 67.4336 237.751 67.1992C237.934 66.9648 238.122 66.7435 238.318 66.5352C238.695 65.5977 239.001 64.6602 239.236 63.7227C239.47 62.7852 239.613 61.8086 239.665 60.793C239.665 60.6497 239.698 60.5781 239.763 60.5781C239.828 60.5781 239.887 60.5326 239.939 60.4414V59.8945C239.939 59.4779 239.958 59.0612 239.997 58.6445C240.05 58.2279 240.147 57.8177 240.29 57.4141C240.251 57.2578 240.232 57.1016 240.232 56.9453C240.232 56.6068 240.258 56.2812 240.31 55.9688C240.375 55.6432 240.408 55.3177 240.408 54.9922C240.408 54.8229 240.388 54.6536 240.349 54.4844C240.323 54.3021 240.258 54.1393 240.154 53.9961L240.134 53.8789C240.134 53.8008 240.16 53.7357 240.212 53.6836C240.277 53.6315 240.323 53.5729 240.349 53.5078C240.284 53.3385 240.258 53.1628 240.271 52.9805C240.297 52.7982 240.31 52.6159 240.31 52.4336C240.31 52.3294 240.297 52.2188 240.271 52.1016C240.245 51.9844 240.18 51.8932 240.076 51.8281C240.193 51.6979 240.277 51.5286 240.329 51.3203C240.382 51.112 240.414 50.8906 240.427 50.6562C240.453 50.4219 240.466 50.194 240.466 49.9727C240.466 49.7383 240.479 49.543 240.505 49.3867C240.622 49.2565 240.753 49.1458 240.896 49.0547C241.052 48.9505 241.221 48.8984 241.404 48.8984C241.638 48.8984 241.807 48.9831 241.911 49.1523C242.016 49.3086 242.094 49.5039 242.146 49.7383C242.198 49.9596 242.237 50.1875 242.263 50.4219C242.302 50.6562 242.367 50.8451 242.458 50.9883ZM255.701 58.8789C255.648 59.0091 255.596 59.1328 255.544 59.25C255.492 59.3672 255.453 59.4974 255.427 59.6406C255.336 59.7057 255.232 59.7578 255.115 59.7969C255.01 59.8229 254.9 59.8555 254.783 59.8945C254.665 59.9206 254.555 59.9596 254.451 60.0117C254.359 60.0508 254.288 60.1159 254.236 60.207C254.197 60.4023 254.177 60.5846 254.177 60.7539C254.177 60.9753 254.216 61.1641 254.294 61.3203C254.255 61.4375 254.229 61.5612 254.216 61.6914C254.203 61.8216 254.197 61.9453 254.197 62.0625C254.197 62.4922 254.249 62.9219 254.353 63.3516C254.457 63.7682 254.516 64.1914 254.529 64.6211C254.529 64.6862 254.522 64.7578 254.509 64.8359C254.496 64.9141 254.49 64.9857 254.49 65.0508C254.49 65.3242 254.594 65.5065 254.802 65.5977C254.763 65.6628 254.744 65.7214 254.744 65.7734C254.744 65.8776 254.757 65.9688 254.783 66.0469C254.809 66.125 254.815 66.2096 254.802 66.3008C254.867 66.431 254.932 66.5482 254.997 66.6523C255.063 66.7435 255.108 66.8607 255.134 67.0039C255.043 67.1862 254.932 67.3555 254.802 67.5117C254.672 67.6549 254.581 67.8372 254.529 68.0586C254.477 68.0456 254.418 68.0391 254.353 68.0391C254.262 68.0391 254.19 68.0586 254.138 68.0977C254.086 68.1367 254.04 68.1823 254.001 68.2344C253.975 68.2995 253.943 68.3581 253.904 68.4102C253.865 68.4753 253.813 68.5208 253.747 68.5469H253.689C253.624 68.5599 253.565 68.5534 253.513 68.5273C253.474 68.5143 253.435 68.5078 253.396 68.5078C253.37 68.5078 253.318 68.5208 253.24 68.5469C253.135 68.4167 253.064 68.2604 253.025 68.0781C252.986 67.9089 252.966 67.7396 252.966 67.5703C252.966 67.388 252.992 67.2253 253.044 67.082C252.901 66.9648 252.81 66.7891 252.771 66.5547C252.745 66.3203 252.712 66.125 252.673 65.9688C252.569 65.487 252.445 65.0182 252.302 64.5625C252.172 64.1068 252.094 63.638 252.068 63.1562C252.055 62.974 252.048 62.7982 252.048 62.6289V61.6133C252.048 61.444 252.055 61.2812 252.068 61.125C252.068 61.0078 252.074 60.8971 252.087 60.793C252.113 60.6758 252.126 60.5586 252.126 60.4414C252.126 60.2852 252.074 60.1354 251.97 59.9922C251.046 60.0312 250.167 60.2005 249.333 60.5C248.513 60.7865 247.693 61.1315 246.872 61.5352C246.82 61.8346 246.788 62.1276 246.775 62.4141C246.762 62.7005 246.755 62.9935 246.755 63.293V64.1523C246.755 64.4779 246.768 64.7513 246.794 64.9727C246.859 65.3503 247.048 65.6432 247.361 65.8516C247.686 66.0469 248.012 66.1966 248.337 66.3008C248.324 66.4961 248.285 66.6654 248.22 66.8086C248.155 66.9388 248.07 67.0625 247.966 67.1797C247.875 67.2839 247.771 67.388 247.654 67.4922C247.536 67.5964 247.419 67.7135 247.302 67.8438C247.198 67.7786 247.094 67.7331 246.99 67.707C246.885 67.681 246.775 67.668 246.658 67.668C246.54 67.6549 246.423 67.6419 246.306 67.6289C246.189 67.6159 246.072 67.5898 245.954 67.5508L245.525 66.9648C245.382 66.7695 245.225 66.5742 245.056 66.3789V66.2031C245.056 65.8516 244.991 65.513 244.861 65.1875C244.73 64.862 244.633 64.5299 244.568 64.1914C244.607 64.0742 244.633 63.957 244.646 63.8398C244.659 63.7227 244.665 63.599 244.665 63.4688C244.665 63.2083 244.652 62.9544 244.626 62.707C244.613 62.4596 244.62 62.2122 244.646 61.9648H244.548C244.431 61.9648 244.307 61.9974 244.177 62.0625C244.047 62.1146 243.917 62.1797 243.786 62.2578C243.669 62.3229 243.552 62.388 243.435 62.4531C243.331 62.5052 243.24 62.5312 243.161 62.5312C243.122 62.5312 243.083 62.5247 243.044 62.5117C243.005 62.4987 242.96 62.4922 242.908 62.4922C242.842 62.4922 242.764 62.5182 242.673 62.5703C242.582 62.6224 242.484 62.681 242.38 62.7461C242.263 62.7982 242.146 62.8503 242.029 62.9023C241.911 62.9544 241.794 62.9805 241.677 62.9805C241.495 62.9805 241.313 62.9023 241.13 62.7461C241.104 62.6419 241.098 62.5443 241.111 62.4531C241.111 62.362 241.111 62.2643 241.111 62.1602C241.111 62.056 241.091 61.9453 241.052 61.8281C241.143 61.6589 241.267 61.5286 241.423 61.4375C241.566 61.3333 241.723 61.2422 241.892 61.1641C242.048 61.0729 242.211 60.9883 242.38 60.9102C242.55 60.819 242.693 60.7018 242.81 60.5586H242.927C243.109 60.5586 243.272 60.5195 243.415 60.4414C243.572 60.3633 243.747 60.3307 243.943 60.3438C244.008 60.3177 244.053 60.2201 244.079 60.0508L244.158 60.0703C244.444 60.0703 244.698 59.9727 244.919 59.7773C245.063 58.9701 245.18 58.1562 245.271 57.3359C245.362 56.5156 245.408 55.6953 245.408 54.875C245.408 54.7969 245.382 54.7188 245.329 54.6406C245.303 54.5365 245.29 54.4388 245.29 54.3477V54.0547C245.29 53.9115 245.297 53.7617 245.31 53.6055C245.323 53.4492 245.355 53.293 245.408 53.1367C245.538 53.0586 245.675 53.0195 245.818 53.0195C245.987 53.0195 246.15 53.0456 246.306 53.0977C246.475 53.1367 246.638 53.1693 246.794 53.1953C246.911 53.3125 246.996 53.4427 247.048 53.5859C247.113 53.7292 247.152 53.8789 247.165 54.0352C247.178 54.1784 247.178 54.3281 247.165 54.4844C247.165 54.6276 247.165 54.7708 247.165 54.9141C247.165 55.2005 247.198 55.4805 247.263 55.7539C247.328 56.0273 247.361 56.2943 247.361 56.5547C247.361 56.6198 247.335 56.6719 247.283 56.7109C247.244 56.737 247.224 56.8216 247.224 56.9648C247.224 57.1081 247.237 57.2578 247.263 57.4141C247.289 57.5703 247.302 57.7266 247.302 57.8828C247.302 58.0651 247.276 58.2539 247.224 58.4492C247.172 58.6445 247.126 58.8333 247.087 59.0156C247.869 58.9505 248.669 58.8529 249.49 58.7227C250.31 58.5924 251.091 58.3841 251.833 58.0977C251.846 58.0716 251.853 58.0326 251.853 57.9805C251.853 57.9023 251.846 57.8242 251.833 57.7461C251.82 57.668 251.814 57.5833 251.814 57.4922C251.814 57.3359 251.866 57.2122 251.97 57.1211C251.905 56.7565 251.859 56.3919 251.833 56.0273C251.807 55.6628 251.794 55.2982 251.794 54.9336V53.8203C251.794 53.4557 251.788 53.0911 251.775 52.7266C251.879 52.6615 251.99 52.6289 252.107 52.6289C252.25 52.6289 252.38 52.668 252.497 52.7461C252.628 52.8112 252.777 52.8438 252.947 52.8438C253.064 52.8438 253.161 52.8242 253.24 52.7852C253.383 52.9154 253.48 53.0846 253.533 53.293C253.585 53.5013 253.63 53.7161 253.669 53.9375C253.708 54.1589 253.747 54.3802 253.786 54.6016C253.839 54.8099 253.936 54.9792 254.079 55.1094L254.099 55.168C254.099 55.2201 254.073 55.2591 254.021 55.2852C253.969 55.3112 253.943 55.3633 253.943 55.4414V55.5195C253.995 55.7279 254.034 55.9427 254.06 56.1641C254.086 56.3854 254.105 56.6133 254.119 56.8477C254.145 57.069 254.177 57.2904 254.216 57.5117C254.255 57.7201 254.327 57.9154 254.431 58.0977C254.496 58.0846 254.581 58.0781 254.685 58.0781C254.945 58.0781 255.147 58.1693 255.29 58.3516C255.447 58.5208 255.583 58.6966 255.701 58.8789ZM261.169 65.3242C261.104 65.4284 261.026 65.526 260.935 65.6172C260.844 65.6953 260.759 65.7799 260.681 65.8711C260.59 65.9102 260.486 65.9297 260.369 65.9297C260.264 65.9297 260.16 65.9297 260.056 65.9297C259.965 65.9167 259.874 65.9167 259.783 65.9297C259.704 65.9297 259.639 65.9557 259.587 66.0078C259.483 65.9818 259.405 65.9362 259.353 65.8711C259.301 65.793 259.21 65.7474 259.079 65.7344C259.027 65.7214 258.975 65.7214 258.923 65.7344C258.728 65.513 258.546 65.2786 258.376 65.0312C258.22 64.7839 258.07 64.5495 257.927 64.3281C257.914 63.8464 257.875 63.3581 257.81 62.8633C257.797 62.7461 257.777 62.6289 257.751 62.5117C257.725 62.3945 257.706 62.2839 257.693 62.1797C257.693 62.0495 257.699 61.9258 257.712 61.8086C257.738 61.6784 257.758 61.5612 257.771 61.457C257.823 61.0794 257.882 60.7083 257.947 60.3438C258.012 59.9792 258.07 59.6081 258.122 59.2305C258.175 58.8919 258.201 58.5404 258.201 58.1758C258.201 57.7982 258.142 57.4466 258.025 57.1211L258.005 57.0234C258.031 56.9193 258.057 56.8346 258.083 56.7695C258.122 56.6914 258.148 56.6068 258.161 56.5156C258.188 56.3724 258.155 56.2682 258.064 56.2031C258.103 56.099 258.168 56.0339 258.259 56.0078C258.35 55.9688 258.402 55.8906 258.415 55.7734C258.428 55.7214 258.428 55.6693 258.415 55.6172C258.52 55.5781 258.624 55.5456 258.728 55.5195C258.845 55.4805 258.956 55.474 259.06 55.5C259.229 55.526 259.379 55.5846 259.509 55.6758C259.639 55.7539 259.763 55.8451 259.88 55.9492C260.089 56.5742 260.173 57.2383 260.134 57.9414C260.095 58.6315 260.03 59.3281 259.939 60.0312C259.848 60.7344 259.789 61.4245 259.763 62.1016C259.737 62.7656 259.841 63.3841 260.076 63.957L260.115 63.9766C260.18 63.9896 260.232 63.9701 260.271 63.918C260.31 63.8529 260.362 63.8268 260.427 63.8398C260.479 63.8659 260.512 63.8789 260.525 63.8789C260.577 64.1393 260.661 64.3867 260.779 64.6211C260.896 64.8555 261.026 65.0898 261.169 65.3242ZM285.29 63.1367C285.238 63.3581 285.134 63.5339 284.978 63.6641C284.835 63.7812 284.665 63.8724 284.47 63.9375C284.275 64.0026 284.066 64.0482 283.845 64.0742C283.637 64.1003 283.448 64.1198 283.279 64.1328C283.096 64.224 282.934 64.3281 282.79 64.4453C282.647 64.5495 282.497 64.6536 282.341 64.7578C281.195 64.901 280.063 65.0768 278.943 65.2852C277.823 65.4935 276.69 65.6693 275.544 65.8125C275.388 65.9167 275.186 65.9883 274.939 66.0273C274.691 66.0534 274.431 66.0794 274.158 66.1055C273.897 66.1185 273.637 66.151 273.376 66.2031C273.116 66.2422 272.888 66.3203 272.693 66.4375C271.846 66.4766 271.026 66.6198 270.232 66.8672C270.089 66.8281 269.939 66.7956 269.783 66.7695C269.639 66.7435 269.496 66.7305 269.353 66.7305C269.249 66.7305 269.132 66.7435 269.001 66.7695C268.871 66.7826 268.767 66.8411 268.689 66.9453C268.376 66.6979 268.005 66.6068 267.576 66.6719C267.224 66.5156 266.911 66.3203 266.638 66.0859C266.378 65.8516 266.176 65.5521 266.033 65.1875C266.046 64.9792 266.046 64.8229 266.033 64.7188C266.02 64.6016 265.928 64.4779 265.759 64.3477C265.759 64.2565 265.785 64.1849 265.837 64.1328C265.902 64.0807 265.941 64.0091 265.954 63.918C265.902 63.8268 265.876 63.7161 265.876 63.5859C265.876 63.3646 265.915 63.1432 265.994 62.9219C266.072 62.6875 266.085 62.4596 266.033 62.2383C266.215 61.9388 266.423 61.6589 266.658 61.3984C266.892 61.125 267.126 60.8646 267.361 60.6172C267.608 60.3568 267.849 60.0964 268.083 59.8359C268.331 59.5755 268.559 59.3021 268.767 59.0156C269.014 58.9375 269.236 58.8203 269.431 58.6641C269.639 58.4948 269.835 58.319 270.017 58.1367C270.212 57.9544 270.408 57.7786 270.603 57.6094C270.798 57.4401 271.026 57.3034 271.286 57.1992C271.313 57.1211 271.352 57.056 271.404 57.0039C271.469 56.9388 271.534 56.8802 271.599 56.8281C271.664 56.776 271.723 56.7174 271.775 56.6523C271.84 56.5872 271.885 56.5091 271.911 56.418H271.736C271.15 56.418 270.564 56.457 269.978 56.5352C269.392 56.6003 268.806 56.6849 268.22 56.7891C267.647 56.8802 267.074 56.9779 266.501 57.082C265.928 57.1862 265.349 57.2708 264.763 57.3359C264.542 57.4531 264.301 57.5573 264.04 57.6484C263.78 57.7396 263.52 57.8307 263.259 57.9219C263.012 58.013 262.771 58.1172 262.536 58.2344C262.289 58.3516 262.074 58.4948 261.892 58.6641C261.853 58.6771 261.794 58.6836 261.716 58.6836C261.573 58.6836 261.449 58.6576 261.345 58.6055C261.241 58.5404 261.124 58.4948 260.994 58.4688C260.967 58.2604 260.928 58.0651 260.876 57.8828C260.811 57.6875 260.779 57.4857 260.779 57.2773C260.779 57.1081 260.805 56.9648 260.857 56.8477C261.039 56.8477 261.169 56.7891 261.247 56.6719C261.313 56.5547 261.417 56.4505 261.56 56.3594C261.599 56.3984 261.638 56.418 261.677 56.418C261.742 56.418 261.801 56.3919 261.853 56.3398C261.905 56.2878 261.97 56.2357 262.048 56.1836C262.126 56.1315 262.217 56.0859 262.322 56.0469C262.426 56.0078 262.563 55.9948 262.732 56.0078C263.122 55.7995 263.487 55.6693 263.826 55.6172C264.177 55.5651 264.561 55.5065 264.978 55.4414C265.082 55.4154 265.154 55.3828 265.193 55.3438C265.232 55.3047 265.277 55.2461 265.329 55.168L265.74 55.1875C266.3 55.2135 266.859 55.181 267.419 55.0898C267.979 54.9857 268.533 54.875 269.079 54.7578C269.639 54.6406 270.199 54.543 270.759 54.4648C271.332 54.3737 271.905 54.3542 272.478 54.4062C272.621 54.3411 272.764 54.3021 272.908 54.2891C273.064 54.276 273.22 54.2695 273.376 54.2695C273.585 54.2695 273.813 54.2891 274.06 54.3281C274.307 54.3672 274.535 54.4388 274.744 54.543C274.965 54.6471 275.141 54.7904 275.271 54.9727C275.414 55.1419 275.486 55.3568 275.486 55.6172C275.486 55.7604 275.453 55.8906 275.388 56.0078C275.323 56.125 275.245 56.2357 275.154 56.3398C275.063 56.444 274.965 56.5482 274.861 56.6523C274.757 56.7435 274.659 56.8346 274.568 56.9258C274.425 57.082 274.288 57.2513 274.158 57.4336C274.04 57.6029 273.897 57.7591 273.728 57.9023C273.637 57.8893 273.565 57.9089 273.513 57.9609C273.474 58.013 273.409 58.0391 273.318 58.0391C273.148 58.1172 273.051 58.2604 273.025 58.4688C272.673 58.612 272.335 58.7812 272.009 58.9766C271.684 59.1719 271.417 59.4388 271.208 59.7773C270.935 59.9466 270.675 60.1419 270.427 60.3633C270.193 60.5716 269.965 60.793 269.744 61.0273C269.522 61.2617 269.301 61.5026 269.079 61.75C268.871 61.9844 268.65 62.2122 268.415 62.4336C268.389 62.6289 268.344 62.8112 268.279 62.9805C268.214 63.1497 268.142 63.3255 268.064 63.5078C268.064 63.651 268.109 63.7747 268.201 63.8789C268.292 63.9831 268.337 64.1198 268.337 64.2891C268.663 64.3542 268.982 64.4062 269.294 64.4453C269.62 64.4714 269.952 64.4844 270.29 64.4844C270.616 64.4844 270.941 64.4648 271.267 64.4258C271.592 64.3737 271.898 64.276 272.185 64.1328C272.38 64.1849 272.582 64.2109 272.79 64.2109C273.077 64.2109 273.35 64.1849 273.611 64.1328C273.884 64.0677 274.158 64.0417 274.431 64.0547C274.757 63.9375 275.089 63.8594 275.427 63.8203C275.779 63.7682 276.124 63.7292 276.462 63.7031C276.801 63.6641 277.139 63.6185 277.478 63.5664C277.829 63.5143 278.168 63.4167 278.494 63.2734C278.676 63.3125 278.845 63.319 279.001 63.293C279.158 63.2669 279.327 63.2539 279.509 63.2539C279.639 63.2539 279.796 63.293 279.978 63.3711C280.186 63.2669 280.401 63.1758 280.622 63.0977C280.857 63.0195 281.091 62.9805 281.326 62.9805C281.417 62.9805 281.508 62.987 281.599 63C281.69 63.013 281.775 63.0391 281.853 63.0781C281.879 63.0651 281.944 63.0391 282.048 63C282.152 62.9609 282.263 62.9219 282.38 62.8828C282.497 62.8438 282.608 62.8112 282.712 62.7852C282.816 62.7461 282.882 62.7266 282.908 62.7266C283.012 62.7266 283.057 62.7591 283.044 62.8242C283.044 62.8763 283.077 62.9023 283.142 62.9023C283.363 62.9023 283.578 62.8633 283.786 62.7852C283.995 62.694 284.21 62.6484 284.431 62.6484C284.522 62.6484 284.607 62.6549 284.685 62.668C284.763 62.681 284.854 62.7005 284.958 62.7266C285.01 62.8047 285.056 62.8893 285.095 62.9805C285.134 63.0586 285.199 63.1107 285.29 63.1367Z" fill="black"/>
</svg>
